# xmcd
#
# Track frame offsets:
#	150
#	28880
#	56695
#	78053
#	94300
#	115688
#	137763
#	157348
#
# Disc length: 2408 seconds
#
# Revision: 1
# Processed by: cddbd v1.5.1PL0 Copyright (c) Steve Scherf et al.
# Submitted via: CDex 1.50Beta5
#
DISCID=67096608
DTITLE=吉田拓郎 - ひまわり
DYEAR=1900
DGENRE=Folk
TTITLE0=ひまわり
TTITLE1=約束〜永遠の地にて〜
TTITLE2=遠い夜
TTITLE3=その人は坂を降りて
TTITLE4=楽園
TTITLE5=冬の雨
TTITLE6=シンシア'89
TTITLE7=帰路
EXTD=
EXTT0=
EXTT1=
EXTT2=
EXTT3=
EXTT4=
EXTT5=
EXTT6=
EXTT7=
PLAYORDER=
